<?xml version="1.0" standalone="no"?>
<!DOCTYPE svg PUBLIC "-//W3C//DTD SVG 20010904//EN"
 "http://www.w3.org/TR/2001/REC-SVG-20010904/DTD/svg10.dtd">
<svg version="1.0" xmlns="http://www.w3.org/2000/svg"
 width="663.000000pt" height="220.000000pt" viewBox="0 0 663.000000 220.000000"
 preserveAspectRatio="xMidYMid meet">

<g transform="translate(0.000000,220.000000) scale(0.100000,-0.100000)"
fill="#000000" stroke="none">
<path d="M2680 2080 c0 -5 5 -10 10 -10 6 0 10 5 10 10 0 6 -4 10 -10 10 -5 0
-10 -4 -10 -10z"/>
<path d="M2710 2076 c0 -9 5 -16 10 -16 6 0 10 4 10 9 0 6 -4 13 -10 16 -5 3
-10 -1 -10 -9z"/>
<path d="M2628 2060 c-14 -10 -28 -16 -32 -13 -3 3 -6 -1 -6 -9 0 -9 -7 -18
-15 -22 -21 -8 -19 -26 3 -26 14 0 15 2 2 10 -9 6 -10 10 -3 10 22 0 25 -21 4
-27 -21 -5 -25 -14 -22 -42 2 -7 -2 -10 -8 -6 -6 3 -11 2 -11 -4 0 -5 5 -13
10 -16 16 -10 12 -25 -5 -19 -8 4 -16 2 -16 -2 -1 -5 -3 -18 -4 -29 -1 -12 -7
-36 -13 -55 -11 -37 -31 -130 -37 -177 -2 -16 -4 -28 -5 -28 -7 0 -6 -66 1
-71 5 -3 9 -10 9 -16 0 -7 -6 -6 -15 2 -18 15 -20 -1 -2 -19 10 -10 9 -11 -4
-6 -13 5 -15 0 -14 -25 1 -17 7 -36 13 -42 7 -7 12 -19 12 -27 0 -10 -7 -5
-19 12 l-18 28 -11 -40 c-6 -24 -6 -43 -1 -47 5 -3 9 1 9 8 0 9 3 9 10 -2 5
-8 10 -19 10 -25 0 -5 -5 -3 -10 5 -6 9 -10 11 -10 3 0 -7 -7 -10 -15 -7 -11
5 -15 -1 -16 -22 -1 -16 -1 -33 0 -38 1 -5 -6 -6 -16 -2 -17 6 -17 5 -1 -7 15
-12 12 -13 -22 -13 -41 1 -52 9 -26 19 8 3 17 1 20 -6 2 -7 5 -7 5 -1 1 5 -13
23 -30 40 -29 28 -33 29 -139 31 -61 1 -112 -3 -116 -8 -3 -5 -9 -7 -14 -4 -5
3 -16 -7 -24 -23 -10 -19 -22 -28 -35 -27 -29 2 -35 10 -9 12 24 2 45 19 35
29 -4 4 -16 -1 -28 -12 -12 -10 -22 -17 -23 -15 0 2 -11 1 -23 -3 -28 -9 -31
-26 -4 -19 10 3 22 0 25 -6 4 -6 -7 -8 -32 -5 -31 3 -42 0 -62 -21 -13 -14
-29 -25 -37 -25 -7 0 -20 -12 -30 -27 -9 -16 -30 -39 -45 -52 -15 -13 -28 -31
-28 -40 0 -13 -2 -13 -9 -3 -7 11 -9 10 -14 -3 -5 -10 -3 -14 4 -9 7 4 10 1 7
-6 -2 -7 -12 -14 -22 -16 -22 -3 -46 -24 -28 -24 7 0 12 -4 12 -10 0 -5 -8 -6
-17 -3 -12 5 -15 2 -10 -10 4 -12 2 -14 -11 -10 -9 3 -14 3 -10 -1 3 -4 -2
-16 -13 -27 -11 -11 -17 -25 -13 -31 4 -6 3 -8 -2 -5 -6 3 -15 -3 -22 -13 -6
-11 -8 -21 -3 -24 4 -3 8 -20 8 -38 0 -18 -2 -25 -4 -16 -3 10 -9 18 -15 18
-6 0 -5 7 3 18 13 15 12 16 -3 4 -10 -8 -14 -20 -11 -29 5 -12 3 -14 -7 -8 -9
5 -11 4 -6 -4 4 -6 11 -9 16 -6 4 3 10 -1 13 -9 6 -14 -9 -16 -30 -3 -10 6
-23 -13 -23 -36 0 -4 -6 -20 -15 -37 -16 -32 -20 -54 -5 -30 7 12 9 10 7 -8
-1 -13 -6 -21 -13 -18 -15 6 -26 -18 -18 -39 7 -18 21 -20 27 -2 2 6 4 -3 4
-20 0 -38 -9 -42 -29 -12 -13 20 -14 20 -14 3 0 -11 -4 -30 -8 -43 -6 -18 -5
-22 5 -16 11 6 12 5 2 -6 -16 -16 -17 -129 -2 -129 6 0 10 -16 8 -37 -3 -62 0
-73 24 -83 12 -5 17 -9 10 -9 -26 -2 38 -85 85 -110 29 -16 42 -14 42 7 0 14
2 15 9 2 6 -8 8 -17 5 -21 -2 -4 7 -10 20 -13 27 -7 109 19 86 27 -8 3 -22 8
-30 10 -8 3 -3 6 13 6 15 1 27 -4 27 -10 0 -7 7 -8 18 -4 9 4 35 9 57 11 30 3
36 1 25 -7 -8 -6 -10 -9 -5 -7 74 29 77 31 63 40 -9 7 -7 8 8 5 18 -4 20 -1
16 17 -3 11 -7 15 -10 8 -5 -16 -19 -15 -19 2 0 7 7 13 16 11 9 -1 20 3 24 9
5 6 5 1 2 -11 -7 -26 9 -31 23 -7 5 9 11 15 13 14 13 -5 37 14 33 25 -3 7 0
16 7 21 8 5 10 3 4 -5 -11 -20 23 2 68 42 l37 33 -27 0 c-20 -1 -28 5 -33 24
-6 21 -4 26 12 27 16 2 17 -1 7 -13 -10 -13 -10 -17 2 -25 19 -12 22 -11 45 5
18 14 18 15 -6 26 l-25 10 25 -4 c14 -3 32 0 40 5 13 9 12 10 -2 5 -22 -7 -23
1 -4 20 11 11 16 11 20 1 3 -6 3 -2 0 10 -4 17 -2 21 9 17 15 -6 34 13 35 36
0 8 4 26 7 40 5 20 5 22 -5 10 -10 -13 -11 -13 -8 0 3 8 17 15 31 15 l27 2
-20 -19 c-11 -11 -17 -24 -14 -30 4 -7 10 -5 16 6 5 9 14 13 20 10 6 -4 8 -2
4 4 -3 6 -3 13 1 15 5 3 9 -37 11 -88 1 -66 8 -109 22 -144 11 -28 19 -55 17
-60 -4 -14 64 -102 74 -96 5 4 9 1 9 -6 0 -8 5 -7 17 2 10 8 14 9 10 2 -4 -6
-3 -14 3 -18 5 -3 10 1 10 9 0 10 8 16 23 15 20 0 21 -1 2 -8 -15 -6 -10 -9
24 -14 45 -6 74 0 67 12 -3 4 7 7 22 7 22 -1 27 3 27 24 1 14 4 30 8 37 4 6 1
14 -5 16 -10 4 -10 6 0 6 8 1 16 -8 19 -19 3 -11 9 -20 13 -20 13 0 30 26 22
35 -4 5 -2 5 5 1 6 -3 16 1 21 10 8 15 10 15 15 0 4 -10 1 -16 -9 -16 -8 0
-12 -5 -8 -11 7 -12 90 64 91 84 0 7 2 19 4 27 2 8 -2 14 -8 12 -7 -1 -13 2
-13 8 0 5 -7 7 -15 4 -10 -4 -15 0 -15 12 0 15 2 16 9 5 7 -11 9 -11 14 0 4
10 6 10 6 2 1 -7 8 -13 17 -13 25 0 -6 25 -33 27 -21 2 -28 -8 -24 -31 1 -5
-5 -6 -13 -3 -9 4 -18 2 -21 -3 -3 -5 -28 -8 -55 -6 -32 2 -53 -1 -60 -10 -16
-18 -49 -13 -47 7 1 10 5 15 10 12 6 -3 0 8 -13 25 -14 19 -29 29 -39 25 -12
-4 -13 -2 -3 4 7 5 12 23 10 40 -2 26 -6 30 -24 27 -19 -3 -22 0 -20 26 3 39
16 51 16 15 0 -16 3 -25 6 -22 4 4 8 50 9 104 1 54 6 107 10 118 l7 20 -15
-20 c-8 -11 -17 -29 -20 -40 -2 -11 -2 23 0 75 3 52 7 97 10 100 3 3 4 -26 1
-65 -3 -38 -3 -62 -1 -53 3 10 8 18 12 18 5 0 6 12 3 26 -4 20 -2 25 8 19 10
-6 12 -1 7 23 -4 19 -2 32 3 32 6 0 10 4 10 9 0 6 -10 8 -22 6 l-23 -4 22 17
c20 16 27 40 38 129 2 18 7 38 11 44 5 8 3 9 -6 4 -9 -6 -10 -2 -5 16 4 13 11
26 15 29 8 5 23 70 26 110 1 14 11 56 22 94 11 38 18 83 16 100 -2 20 0 26 5
18 11 -18 24 29 14 54 -4 12 -3 15 5 10 8 -5 12 1 12 15 0 12 -3 20 -6 16 -3
-3 -12 0 -19 6 -10 9 -9 18 3 44 16 33 32 35 32 5 0 -15 -2 -15 -11 -2 -8 12
-9 10 -4 -9 5 -16 4 -21 -4 -17 -6 4 -11 2 -11 -3 0 -6 6 -11 14 -11 15 0 30
45 21 60 -3 4 -1 10 3 12 17 6 39 94 29 116 -5 11 -6 33 -3 47 6 22 9 25 21
15 8 -7 15 -8 15 -3 0 5 -9 16 -20 26 -11 9 -20 22 -20 29 0 6 7 3 15 -8 8
-10 15 -14 15 -9 0 6 5 3 10 -5 6 -9 10 -10 10 -3 0 7 -8 17 -17 23 -17 11
-17 11 -1 6 11 -3 22 2 28 15 18 32 6 45 -18 19 -12 -13 -22 -18 -22 -11 0 6
11 22 25 35 28 26 33 41 10 33 -11 -5 -12 -2 -4 17 9 18 7 29 -6 50 -10 15
-22 23 -29 19 -21 -14 -66 -11 -66 3 0 19 -13 17 -42 -6z m19 -11 c-12 -7 -16
-17 -12 -32 5 -17 4 -19 -4 -7 -9 13 -11 12 -11 -5 0 -17 -2 -17 -10 -5 -12
19 -13 33 -1 25 5 -3 12 4 16 15 3 11 14 20 23 20 15 -1 15 -2 -1 -11z m103
-19 c0 -5 -2 -10 -4 -10 -3 0 -8 5 -11 10 -3 6 -1 10 4 10 6 0 11 -4 11 -10z
m13 -25 c-3 -9 -8 -14 -10 -11 -3 3 -2 9 2 15 9 16 15 13 8 -4z m-13 -47 c0
-10 -4 -18 -9 -18 -5 0 -11 8 -13 18 -3 11 0 19 8 19 8 0 14 -9 14 -19z m-213
-150 c1 -46 -11 -78 -28 -78 -6 0 -3 7 5 16 9 8 16 23 16 32 0 15 -2 15 -11 2
-9 -12 -10 -12 -5 3 3 11 9 30 12 43 9 34 11 30 11 -18z m110 -290 c-3 -8 -6
-5 -6 6 -1 11 2 17 5 13 3 -3 4 -12 1 -19z m-176 -65 c-8 -15 -10 -15 -11 -2
0 17 10 32 18 25 2 -3 -1 -13 -7 -23z m-21 -64 c0 -6 -4 -7 -10 -4 -5 3 -10
11 -10 16 0 6 5 7 10 4 6 -3 10 -11 10 -16z m27 -36 c1 -22 -1 -24 -8 -10 -6
9 -7 22 -4 27 9 14 10 13 12 -17z m121 -59 c-14 -14 -16 -14 -21 0 -4 10 -1
13 9 9 7 -3 14 1 14 8 0 7 3 9 7 5 4 -3 0 -13 -9 -22z m-535 -18 c-10 -13 -20
-20 -21 -15 -5 12 17 39 30 39 5 0 1 -11 -9 -24z m537 -30 c0 -6 -7 -20 -15
-30 -8 -11 -13 -28 -9 -38 3 -10 2 -18 -3 -18 -5 0 -9 21 -9 48 -1 28 1 39 6
28 5 -16 7 -17 12 -4 4 9 1 21 -5 27 -9 9 -8 11 6 6 9 -4 17 -12 17 -19z
m-689 -3 c-11 -5 -11 -7 0 -14 11 -7 10 -9 -4 -9 -10 0 -15 -5 -12 -10 4 -6
11 -7 17 -4 7 4 8 2 4 -4 -4 -6 -14 -9 -24 -6 -9 3 -6 -1 8 -10 l25 -15 -23 2
c-13 1 -28 10 -34 20 -6 11 -6 17 0 14 5 -4 14 5 20 18 7 14 17 25 24 24 10 0
9 -2 -1 -6z m-70 -52 c-8 -5 -11 -16 -8 -26 4 -9 3 -14 -3 -10 -6 3 -10 1 -10
-6 0 -7 -2 -10 -5 -7 -9 9 14 58 27 58 10 0 9 -3 -1 -9z m219 -33 c0 -5 -4 -6
-10 -3 -6 3 -7 -1 -3 -10 3 -9 9 -13 12 -8 3 4 13 8 21 8 8 0 14 6 12 14 -2
11 0 12 11 3 8 -7 17 -8 21 -4 10 10 126 10 120 0 -3 -4 1 -8 9 -8 8 0 18 -7
21 -16 3 -8 11 -12 17 -8 8 4 7 9 -2 15 -8 5 -9 9 -4 9 20 0 38 -17 26 -24 -6
-4 -11 -12 -11 -17 0 -6 4 -8 8 -5 13 8 14 -141 2 -165 -10 -17 -9 -20 2 -13
7 4 5 -2 -6 -14 -10 -12 -18 -33 -18 -46 0 -14 -4 -24 -8 -21 -4 3 -7 -11 -5
-29 1 -24 -2 -33 -11 -29 -7 2 -10 12 -7 21 8 21 2 15 -21 -22 -10 -16 -14
-26 -9 -23 5 3 9 -11 10 -30 1 -28 -2 -32 -9 -20 -5 10 -6 22 -3 27 3 6 2 10
-3 10 -12 0 -26 -30 -23 -49 1 -7 -2 -10 -8 -7 -12 8 -40 -43 -34 -61 2 -6 -1
-15 -8 -19 -8 -4 -9 -3 -5 4 13 21 -9 13 -28 -10 -10 -13 -30 -35 -43 -49 -18
-20 -21 -29 -12 -34 8 -6 10 -4 4 5 -5 8 -4 11 3 6 6 -4 8 -14 5 -22 -4 -12
-8 -13 -14 -3 -6 10 -11 10 -23 0 -9 -7 -13 -17 -10 -22 3 -5 -1 -6 -9 -3 -19
7 -32 -12 -16 -22 8 -4 9 -3 5 4 -5 8 -2 10 8 6 23 -9 20 -24 -4 -19 -12 2
-24 -4 -30 -16 -8 -15 -7 -19 4 -19 11 0 10 -6 -7 -22 -23 -24 -71 -34 -64
-15 2 7 14 12 27 12 13 0 25 7 28 15 5 13 3 13 -14 0 -18 -15 -18 -14 -1 12
14 23 14 26 2 22 -8 -4 -15 -10 -15 -16 0 -5 -5 -6 -12 -2 -7 4 -8 3 -4 -4 7
-11 -6 -17 -27 -13 -5 1 -6 -3 -2 -9 3 -6 -3 -10 -15 -10 -12 0 -19 -4 -16 -8
6 -10 -110 -10 -120 0 -4 4 -13 3 -20 -3 -19 -15 -33 -3 -27 24 4 17 3 19 -6
7 -8 -12 -10 -11 -8 7 0 12 5 19 10 16 5 -3 5 2 0 13 -10 22 -10 150 0 160 4
4 7 17 7 28 0 12 6 32 13 46 16 31 12 49 -11 45 -9 -1 -11 0 -4 2 6 3 12 8 12
13 0 5 -8 7 -17 3 -13 -4 -12 -1 4 11 12 9 28 13 36 10 19 -7 36 23 31 56 -3
19 -2 22 6 10 5 -8 10 -13 11 -10 8 44 3 84 -10 76 -4 -3 -7 4 -7 14 0 18 1
18 17 2 9 -9 15 -27 14 -39 -3 -31 1 -29 19 9 17 33 21 52 7 29 -5 -7 -14 -10
-20 -7 -21 13 -11 23 20 20 29 -4 31 -2 27 21 -4 21 -3 23 9 14 11 -10 12 -8
7 5 -5 13 -2 15 12 9 17 -6 17 -5 5 10 -12 15 -12 17 2 12 16 -7 50 32 41 47
-3 4 1 5 9 2 8 -3 27 10 45 30 23 27 29 42 26 64 -4 26 -2 29 26 29 16 0 30
-4 30 -9z m255 3 c3 -5 -6 -8 -20 -7 -35 4 -44 16 -12 16 14 0 28 -4 32 -9z
m-498 -50 c-10 -12 -9 -14 8 -7 11 4 16 3 11 -1 -13 -13 -57 -11 -46 2 6 7 8
14 5 16 -2 3 4 5 15 5 15 0 17 -3 7 -15z m-45 2 c-6 -2 -10 -9 -7 -13 3 -5 1
-11 -5 -15 -5 -3 -10 0 -10 8 0 17 10 27 24 26 6 0 5 -3 -2 -6z m181 -40 c3 9
11 17 17 17 5 0 2 -9 -7 -19 -18 -22 -45 -17 -36 7 6 13 7 13 13 -3 6 -17 7
-17 13 -2z m-203 -24 c-7 -11 -14 -18 -17 -15 -3 3 -12 -2 -19 -12 -8 -10 -13
-12 -14 -4 0 6 -1 15 -2 19 -2 3 6 7 17 9 11 2 21 8 23 13 2 6 8 11 13 11 6 0
5 -9 -1 -21z m-73 -98 c-2 -24 -31 -20 -34 5 -2 10 0 13 3 7 8 -19 27 -16 20
3 -3 8 -2 12 3 9 6 -3 9 -14 8 -24z m643 -55 c0 -3 -4 -8 -10 -11 -5 -3 -10
-1 -10 4 0 6 5 11 10 11 6 0 10 -2 10 -4z m0 -48 c0 -11 -4 -16 -10 -13 -5 3
-10 1 -10 -4 0 -6 5 -11 11 -11 8 0 8 -4 0 -13 -7 -9 -7 -17 0 -24 6 -6 5 -10
-4 -10 -16 0 -20 21 -15 75 3 25 28 24 28 0z m-730 -64 c9 -9 -4 -10 -53 -5
-5 1 -5 5 -2 11 7 11 41 8 55 -6z m630 -79 c0 -8 -2 -15 -4 -15 -2 0 -6 7 -10
15 -3 8 -1 15 4 15 6 0 10 -7 10 -15z m-518 -24 c-20 -35 -22 -35 -15 2 3 15
11 27 19 27 10 0 9 -7 -4 -29z m795 -13 c-3 -7 -5 -2 -5 12 0 14 2 19 5 13 2
-7 2 -19 0 -25z m-987 8 c0 -3 -4 -8 -10 -11 -5 -3 -10 -1 -10 4 0 6 5 11 10
11 6 0 10 -2 10 -4z m982 -68 c-8 -8 -9 -4 -5 13 4 13 8 18 11 10 2 -7 -1 -18
-6 -23z m-337 -43 c0 -22 -5 -29 -22 -30 -13 -1 -23 3 -23 8 0 5 -10 7 -21 4
-17 -5 -14 1 12 23 40 35 53 33 54 -5z m-650 -34 c-8 -27 -9 -114 0 -142 5
-17 4 -21 -4 -13 -13 11 -20 165 -8 157 4 -2 5 8 2 24 -5 23 -4 25 5 10 6 -9
9 -26 5 -36z m670 -11 c-3 -5 -2 -10 4 -10 6 0 8 -7 5 -15 -9 -23 -22 -18 -19
8 3 26 3 27 11 27 3 0 2 -4 -1 -10z m50 0 c8 -13 -5 -13 -25 0 -13 8 -13 10 2
10 9 0 20 -4 23 -10z m290 -21 c11 -17 0 -20 -21 -4 -17 13 -17 14 -2 15 9 0
20 -5 23 -11z m-440 -28 c-3 -21 -31 -22 -32 0 -1 11 5 17 16 16 10 0 18 -8
16 -16z m425 -6 c0 -8 -2 -15 -4 -15 -2 0 -6 7 -10 15 -3 8 -1 15 4 15 6 0 10
-7 10 -15z m-506 -80 c-4 -8 -11 -15 -16 -15 -6 0 -5 6 2 15 7 8 14 15 16 15
2 0 1 -7 -2 -15z m809 -15 c9 -10 9 -11 0 -6 -8 5 -13 1 -13 -11 -1 -19 -30
-64 -30 -46 0 7 5 15 10 18 6 3 10 15 10 26 0 10 -4 19 -10 19 -5 0 -10 -9
-10 -20 0 -11 -7 -20 -15 -20 -14 0 -13 3 1 25 9 14 12 25 6 25 -6 0 -14 -5
-17 -10 -4 -6 -11 -7 -18 -3 -7 4 -4 9 9 14 27 9 63 5 77 -11z m-693 5 c0 -2
-10 -9 -22 -15 -22 -11 -22 -10 -4 4 21 17 26 19 26 11z m558 -2 c-10 -2 -26
-2 -35 0 -10 3 -2 5 17 5 19 0 27 -2 18 -5z m-634 -15 c-3 -4 -11 -5 -19 -1
-21 7 -19 12 4 10 11 0 18 -5 15 -9z m339 -25 c-5 -12 -3 -14 7 -8 10 6 12 4
7 -8 -3 -10 -3 -17 2 -17 5 0 8 -12 8 -27 0 -25 -2 -24 -19 15 -10 23 -16 47
-13 52 10 16 15 11 8 -7z m-351 -20 c-5 -24 -6 -25 -12 -8 -6 16 2 33 16 35 1
0 -1 -12 -4 -27z m-425 -37 c4 -5 3 -6 -4 -2 -6 3 -14 2 -18 -3 -3 -5 3 -14
12 -20 10 -6 14 -11 10 -11 -4 0 -20 8 -35 17 l-27 17 20 -23 20 -24 -22 14
c-22 13 -29 30 -18 41 8 8 53 3 62 -6z m23 -76 c8 -5 11 -10 5 -10 -5 0 -17 5
-25 10 -8 5 -10 10 -5 10 6 0 17 -5 25 -10z m76 -8 c-15 -3 -16 -6 -5 -14 12
-8 12 -9 0 -6 -8 2 -15 11 -17 20 -1 11 4 14 20 10 19 -6 19 -7 2 -10z"/>
<path d="M2025 1132 c-6 -4 -11 -14 -13 -22 -3 -12 0 -12 14 2 18 18 17 33 -1
20z"/>
<path d="M1717 744 c3 -7 9 -14 14 -14 14 0 10 17 -5 23 -10 4 -13 1 -9 -9z"/>
<path d="M2123 574 c-15 -16 -16 -24 -4 -24 8 0 24 30 19 35 -2 2 -9 -3 -15
-11z"/>
<path d="M2734 1794 c-2 -29 2 -30 15 -5 8 14 7 20 -2 24 -7 3 -13 -5 -13 -19z"/>
<path d="M822 1412 c-18 -2 -30 -8 -27 -13 4 -5 1 -9 -4 -9 -6 0 -11 5 -11 11
0 5 -4 8 -10 4 -13 -8 0 -37 14 -32 7 3 12 -3 12 -13 0 -10 -3 -17 -7 -14 -4
2 -19 0 -34 -6 -17 -7 -24 -7 -20 0 3 6 13 10 21 10 8 0 14 4 14 10 0 5 -6 7
-13 4 -8 -3 -25 0 -40 5 -26 10 -41 1 -42 -23 0 -5 -10 -12 -22 -17 -16 -6
-23 -5 -23 3 0 7 -13 0 -28 -15 -15 -15 -31 -27 -34 -27 -3 0 -36 -29 -73 -65
-37 -36 -62 -65 -56 -65 6 0 11 4 11 10 0 5 8 14 18 19 14 7 19 6 19 -4 0 -7
-6 -11 -13 -8 -6 2 -16 -8 -22 -24 -6 -15 -11 -22 -11 -15 -1 6 -8 12 -17 12
-13 0 -14 -3 -5 -13 11 -14 5 -27 -13 -27 -6 0 -4 5 4 10 9 6 10 10 3 10 -7 0
-17 -10 -24 -21 -9 -17 -8 -23 2 -30 8 -5 9 -9 3 -9 -5 0 -15 5 -21 11 -8 8
-13 8 -17 0 -4 -6 -4 -11 0 -11 3 0 -4 -9 -17 -20 -13 -10 -19 -20 -14 -20 6
-1 18 -3 28 -5 9 -2 17 1 17 7 0 6 -7 8 -15 4 -8 -3 -15 -1 -15 4 0 21 53 18
56 -3 1 -9 -2 -15 -6 -12 -5 3 -11 1 -14 -4 -4 -5 -19 -8 -35 -6 -19 3 -31 -1
-35 -11 -3 -8 -2 -13 3 -10 5 4 7 -3 4 -14 -3 -11 -10 -20 -15 -20 -5 0 -6 6
-2 13 4 6 -5 1 -19 -12 -15 -13 -30 -34 -33 -45 -4 -12 -16 -34 -28 -51 -11
-16 -20 -31 -18 -33 1 -1 -8 -23 -22 -50 -13 -26 -22 -55 -21 -64 2 -10 0 -18
-5 -18 -14 0 -20 -31 -10 -48 9 -14 10 -13 5 5 -3 12 -2 24 3 26 10 7 9 -69
-2 -80 -4 -4 -6 -2 -4 6 2 7 -2 15 -9 18 -13 5 -28 -51 -18 -67 4 -6 1 -17 -5
-25 -8 -10 -9 -19 -3 -27 16 -20 23 -73 11 -88 -7 -12 -9 -10 -5 8 3 12 0 22
-5 22 -10 0 -8 -26 7 -100 3 -14 9 -26 15 -28 5 -2 10 -10 10 -18 0 -8 5 -14
10 -14 6 0 10 -8 11 -17 0 -11 3 -13 6 -5 7 19 23 4 16 -16 -5 -14 -4 -15 8
-6 28 22 48 24 46 5 0 -10 -7 -18 -14 -18 -6 0 -10 4 -7 9 3 4 0 8 -5 8 -19 0
-12 -17 15 -35 14 -9 35 -14 47 -11 12 3 26 1 33 -5 8 -7 14 -7 19 1 3 5 14
10 23 9 14 0 13 -2 -3 -9 -14 -6 -7 -8 25 -5 25 2 45 4 45 5 0 1 13 3 30 5 16
2 31 9 33 15 2 5 8 8 13 4 5 -3 9 0 9 5 0 6 7 11 15 11 8 0 15 5 15 10 0 7 -6
7 -19 0 -13 -7 -22 -7 -26 0 -6 10 -4 11 25 14 8 0 14 6 13 12 -1 7 14 10 43
8 39 -3 49 1 84 33 21 20 36 41 33 46 -3 6 -1 7 4 4 6 -4 21 2 34 12 20 16 22
21 9 35 -7 10 -9 16 -4 14 5 -1 20 4 34 11 l25 12 -23 -18 c-13 -10 -20 -22
-16 -26 6 -6 94 97 94 111 0 3 -10 -3 -22 -14 -16 -13 -19 -14 -10 -2 10 13
10 17 0 22 -7 3 1 3 19 0 26 -3 35 0 45 18 7 13 11 27 10 31 -1 5 6 6 17 2 15
-4 21 0 25 17 2 13 4 7 2 -13 -1 -25 2 -35 10 -32 7 2 15 -1 20 -8 4 -8 3 -10
-4 -5 -12 7 -13 0 -18 -138 -1 -55 -1 -58 13 -35 l14 24 -7 -25 c-4 -14 -9
-31 -12 -39 -3 -8 -1 -12 5 -8 5 4 10 -6 10 -23 0 -16 7 -38 16 -48 10 -10 15
-22 12 -25 -3 -4 -2 -5 2 -2 3 3 12 -3 20 -13 12 -15 13 -14 2 8 -6 14 -18 33
-27 43 -29 32 4 17 37 -18 18 -19 28 -35 23 -35 -5 0 -12 -7 -15 -14 -4 -11
-1 -13 10 -9 12 5 14 3 8 -8 -4 -8 -5 -11 0 -7 4 4 15 3 25 -2 21 -11 62 -1
54 14 -3 6 2 2 10 -8 9 -11 16 -18 17 -15 0 2 2 15 5 28 3 19 1 22 -13 17 -10
-4 -14 -4 -10 1 12 11 66 12 73 2 7 -12 24 -2 24 14 0 7 -4 6 -11 -3 -8 -12
-10 -12 -7 -1 2 8 12 15 21 17 11 1 15 -2 11 -9 -5 -8 -4 -9 3 -2 6 6 13 21
17 35 3 14 3 19 0 12 -3 -6 -10 -10 -15 -6 -5 3 -9 1 -9 -4 0 -5 -6 -9 -14 -9
-8 0 -12 6 -8 15 3 10 1 13 -6 8 -7 -4 -12 -2 -12 3 0 13 13 14 26 2 5 -6 16
-5 26 3 16 12 15 15 -13 35 -17 13 -42 24 -55 25 -13 0 -24 5 -24 9 0 5 -5 5
-11 2 -6 -5 -4 -12 8 -21 17 -13 16 -13 -7 -10 -14 3 -27 5 -29 5 -2 1 2 7 8
14 6 8 7 18 3 22 -4 5 -2 5 5 2 6 -4 14 -1 16 5 4 10 6 10 6 1 1 -7 6 -13 13
-13 6 0 4 8 -6 19 -9 10 -18 28 -19 39 -1 24 -10 20 -13 -6 -2 -9 2 -20 9 -25
8 -6 8 -7 -3 -4 -10 2 -15 16 -15 40 -1 19 3 33 7 31 4 -3 8 -1 8 5 0 5 -4 12
-8 15 -13 8 -15 338 -2 387 7 24 12 71 13 104 0 42 3 53 9 40 6 -14 7 -10 3
14 -3 18 -5 44 -5 58 0 13 -4 22 -9 19 -5 -4 -7 4 -3 16 4 18 6 19 11 5 11
-30 30 -3 28 40 -1 31 -5 40 -17 37 -8 -3 -5 1 8 7 23 13 30 29 11 29 -6 0 -8
7 -5 16 3 8 2 12 -4 9 -6 -3 -10 -2 -10 4 0 6 -9 15 -21 21 -16 9 -23 8 -32
-2 -8 -10 -21 -12 -42 -7 -26 6 -27 7 -6 8 20 1 22 3 11 16 -11 13 -15 13 -22
3 -7 -9 -8 -7 -4 7 7 26 -8 50 -25 40 -11 -6 -12 -5 -1 6 19 20 14 31 -8 19
-12 -6 -20 -7 -20 -1 0 5 6 11 12 13 8 3 2 12 -14 22 -27 17 -101 26 -166 18z
m168 -27 c0 -2 -6 -5 -13 -8 -8 -3 -14 1 -14 8 0 7 6 11 14 8 7 -3 13 -6 13
-8z m-290 -25 c0 -5 -5 -10 -11 -10 -5 0 -7 5 -4 10 3 6 8 10 11 10 2 0 4 -4
4 -10z m-73 -58 c-9 -2 -15 -8 -11 -13 3 -5 9 -7 13 -5 4 3 8 -5 8 -17 2 -20
1 -20 -8 -4 -6 9 -15 17 -22 17 -7 0 -6 -4 3 -10 8 -5 11 -12 7 -16 -4 -4 -13
-2 -19 4 -17 17 9 63 31 54 14 -6 14 -7 -2 -10z m-54 -35 c2 -6 -1 -18 -9 -24
-9 -9 -13 -10 -16 -1 -3 7 -7 5 -11 -5 -4 -11 -1 -17 8 -17 9 0 5 -9 -12 -26
-14 -14 -28 -23 -31 -20 -3 4 3 13 14 22 13 11 15 17 6 20 -9 4 -6 14 10 34
26 32 34 36 41 17z m177 -30 c0 -5 7 -4 15 3 11 9 15 9 15 1 0 -7 4 -10 9 -7
5 3 12 -1 15 -9 4 -13 2 -13 -14 -5 -23 12 -33 13 -25 1 3 -5 1 -12 -5 -16 -5
-3 -10 -1 -10 6 0 6 -7 17 -16 24 -15 11 -15 12 0 12 9 0 16 -5 16 -10z m170
3 c0 -5 -7 -10 -16 -10 -8 0 -12 5 -9 10 3 6 10 10 16 10 5 0 9 -4 9 -10z m36
-12 c-1 -26 -20 -27 -24 -2 -2 12 3 21 11 21 8 0 14 -9 13 -19z m178 -30 c-2
-9 0 -19 6 -23 5 -3 10 -12 10 -18 0 -7 -6 -3 -13 8 -13 23 -20 86 -6 64 5 -8
6 -21 3 -31z m26 27 c0 -8 -2 -15 -4 -15 -2 0 -6 7 -10 15 -3 8 -1 15 4 15 6
0 10 -7 10 -15z m-253 -14 c-16 -6 -15 -9 8 -31 15 -14 25 -19 23 -11 -2 7 3
15 10 17 7 1 8 0 2 -3 -6 -3 -6 -11 1 -25 6 -11 8 -22 5 -26 -3 -3 -6 0 -6 6
0 7 -4 12 -9 12 -4 0 -5 -19 0 -42 4 -25 3 -64 -3 -93 -6 -27 -11 -60 -10 -72
0 -13 -5 -20 -10 -17 -6 4 -8 -9 -6 -32 2 -27 -1 -39 -12 -41 -13 -4 -13 -3 0
6 11 8 11 11 2 11 -15 0 -21 -14 -25 -60 -2 -26 -7 -34 -19 -32 -10 1 -22 -8
-29 -20 -6 -13 -23 -35 -36 -49 -18 -20 -21 -29 -12 -34 8 -6 10 -4 4 6 -5 8
-4 11 1 6 10 -10 14 -67 5 -67 -3 0 -12 10 -20 23 -13 20 -13 21 2 8 10 -7 17
-9 17 -3 0 5 -7 12 -15 15 -9 4 -23 -8 -40 -36 -13 -23 -25 -38 -25 -34 0 5
-5 5 -11 1 -8 -4 -7 -9 2 -14 17 -11 20 -50 2 -43 -7 3 -13 11 -13 19 0 8 -5
14 -11 14 -6 0 -8 -8 -5 -18 4 -12 1 -19 -8 -19 -9 0 -12 5 -9 11 4 6 -9 -6
-29 -26 -19 -21 -40 -38 -47 -38 -6 0 -11 -5 -11 -11 0 -5 4 -8 9 -5 5 4 20 2
33 -4 19 -7 16 -8 -17 -5 -42 4 -84 -19 -86 -47 0 -7 -4 -4 -9 7 -5 11 -9 14
-9 7 -1 -7 -5 -11 -10 -8 -5 4 -7 -3 -4 -14 4 -17 1 -20 -23 -19 l-29 1 25 8
c28 9 19 13 -25 10 -16 -1 -35 -7 -40 -13 -15 -18 -35 -19 -29 -2 4 8 11 12
16 9 6 -4 5 3 -1 15 -13 23 -22 26 -37 11 -7 -7 -11 -6 -11 4 0 8 4 13 8 11
13 -8 20 28 8 39 -9 8 -10 7 -6 -6 4 -10 2 -18 -3 -18 -13 0 -13 27 0 35 6 3
10 14 10 23 0 13 -2 14 -9 3 -6 -9 -9 -5 -9 14 0 17 3 22 8 15 12 -20 23 26
15 66 -3 19 -10 32 -16 29 -5 -4 -9 -2 -9 4 0 5 5 13 11 16 6 4 8 13 5 21 -3
8 -1 14 5 14 7 0 9 -10 6 -23 -4 -12 -1 -29 4 -37 9 -13 10 -12 5 2 -3 10 -1
20 4 23 5 3 7 11 4 18 -2 7 7 28 20 46 14 19 23 38 20 42 -3 5 0 9 6 9 7 0 8
5 3 13 -4 6 -8 24 -8 38 0 22 4 26 25 24 23 -3 49 19 46 38 0 5 7 13 16 18 10
5 15 16 11 25 -3 9 0 14 8 12 7 -2 13 3 14 10 0 8 9 20 19 28 11 8 16 14 10
14 -5 0 -2 5 6 10 18 11 20 31 5 43 -6 5 -2 6 9 3 20 -7 49 11 41 25 -3 4 -17
4 -32 -2 -22 -8 -24 -7 -15 4 7 8 24 13 39 12 30 -1 68 29 57 46 -4 8 -9 7
-15 -2 -6 -10 -8 -6 -6 11 3 20 10 25 35 25 18 1 28 -3 25 -10 -4 -7 -2 -7 5
0 6 6 13 20 15 32 2 13 7 26 12 30 4 5 5 2 1 -4 -4 -8 -2 -13 5 -13 8 0 8 -4
-1 -15 -12 -14 -10 -14 16 -1 63 32 94 39 113 23 12 -10 14 -9 9 4 -5 13 -1
15 20 11 21 -4 23 -6 9 -11z m-350 -26 c0 -8 -7 -15 -15 -15 -12 0 -12 3 -2
15 7 8 13 15 15 15 1 0 2 -7 2 -15z m-84 -65 c3 -11 0 -23 -5 -27 -7 -3 -8 -1
-4 5 9 16 -7 15 -22 0 -19 -19 -14 0 6 21 9 11 18 20 18 20 1 1 4 -8 7 -19z
m660 0 c-3 -12 -8 -19 -11 -16 -5 6 5 36 12 36 2 0 2 -9 -1 -20z m1 -100 c-5
-5 -9 4 -10 23 -1 30 -1 30 9 9 6 -14 7 -26 1 -32z m-177 -2 c-3 -8 -6 -5 -6
6 -1 11 2 17 5 13 3 -3 4 -12 1 -19z m-421 -24 c-1 -6 -7 -18 -14 -26 -6 -8
-8 -18 -4 -23 4 -4 -3 -2 -15 6 -21 12 -28 49 -10 49 5 0 7 -7 4 -15 -4 -8 -2
-17 2 -20 10 -6 24 23 16 34 -2 4 2 8 9 8 8 0 13 -6 12 -13z m414 -29 c-7 -8
-9 -15 -4 -15 5 0 9 -11 9 -24 0 -13 -4 -24 -9 -23 -5 1 -11 -4 -13 -11 -3 -8
1 -10 13 -5 16 6 17 5 4 -9 -13 -13 -16 -14 -23 -2 -4 8 -3 23 3 34 6 12 9 26
7 33 -5 14 12 51 20 43 3 -3 0 -12 -7 -21z m177 -27 c-3 -8 -6 -5 -6 6 -1 11
2 17 5 13 3 -3 4 -12 1 -19z m-840 -4 c-3 -3 -12 -4 -19 -1 -8 3 -5 6 6 6 11
1 17 -2 13 -5z m840 -46 c-3 -8 -6 -5 -6 6 -1 11 2 17 5 13 3 -3 4 -12 1 -19z
m-896 -61 c-7 -7 -7 -14 0 -24 9 -9 8 -13 0 -13 -7 0 -10 -4 -7 -8 2 -4 -4 -9
-15 -9 -10 -1 -19 2 -19 8 0 5 7 9 15 9 8 0 15 5 15 11 0 5 -6 7 -12 3 -7 -4
-5 2 5 13 9 11 18 30 18 44 l2 24 4 -24 c3 -13 0 -28 -6 -34z m642 -70 c4 3 7
1 7 -5 0 -11 -12 -16 -31 -14 -4 1 -6 -6 -5 -16 0 -9 -5 -16 -13 -14 -7 1 -21
-3 -30 -10 -14 -12 -15 -11 -2 5 8 10 21 15 28 13 11 -4 13 0 8 14 -4 12 -2
20 5 20 6 0 8 5 4 13 -6 9 -5 9 8 0 8 -7 18 -10 21 -6z m-103 -140 c0 -7 -4
-6 -10 3 -8 12 -10 12 -10 1 0 -8 -3 -12 -6 -8 -9 9 6 28 17 22 5 -4 9 -12 9
-18z m-431 -47 c0 -9 -4 -8 -9 5 -5 11 -9 27 -9 35 0 9 4 8 9 -5 5 -11 9 -27
9 -35z m570 23 c0 -11 -3 -13 -6 -5 -2 6 -10 9 -15 6 -7 -4 -8 -2 -4 4 11 18
26 14 25 -5z m51 7 c0 -5 -4 -10 -10 -10 -5 0 -10 5 -10 10 0 6 5 10 10 10 6
0 10 -4 10 -10z m-810 -20 c0 7 2 11 5 8 3 -3 0 -26 -7 -52 -9 -34 -14 -42
-19 -29 -4 10 -2 24 4 31 7 9 7 16 -1 24 -7 7 -12 19 -12 28 1 12 4 11 15 -4
10 -13 15 -15 15 -6z m7 -92 c-3 -8 -6 -5 -6 6 -1 11 2 17 5 13 3 -3 4 -12 1
-19z m480 -1 c0 -8 -6 -14 -14 -14 -17 0 -17 14 0 20 6 3 12 6 13 6 0 1 1 -5
1 -12z m-77 -47 c0 -5 -5 -10 -11 -10 -5 0 -7 5 -4 10 3 6 8 10 11 10 2 0 4
-4 4 -10z m387 -27 c-3 -10 -5 -4 -5 12 0 17 2 24 5 18 2 -7 2 -21 0 -30z
m-603 -18 c-9 -14 -18 -25 -21 -25 -5 0 5 18 20 38 17 22 18 13 1 -13z m201
18 c15 -5 14 -8 -6 -20 -23 -14 -24 -14 -1 -8 12 4 22 2 22 -3 0 -5 -16 -9
-35 -9 -22 0 -35 5 -35 14 0 7 3 12 8 12 19 -3 33 2 27 11 -7 12 -3 12 20 3z
m-392 -60 c-8 -20 -29 -16 -30 7 -1 11 2 18 8 15 5 -4 9 0 9 7 0 10 2 10 9 -1
5 -8 7 -20 4 -28z m512 -3 c-3 -5 -12 -10 -18 -10 -7 0 -6 4 3 10 19 12 23 12
15 0z m-508 -42 c-3 -8 -6 -5 -6 6 -1 11 2 17 5 13 3 -3 4 -12 1 -19z m1038
12 c4 -6 10 -8 15 -5 9 6 35 -23 27 -31 -3 -3 -17 2 -31 11 -16 11 -26 13 -26
6 0 -6 -5 -11 -11 -11 -8 0 -9 4 0 13 6 8 8 17 4 20 -3 4 -1 7 5 7 6 0 14 -5
17 -10z m-48 -26 c-3 -3 -12 -4 -19 -1 -8 3 -5 6 6 6 11 1 17 -2 13 -5z m-921
-16 c-10 -6 -22 -6 -26 -2 -5 5 3 10 18 11 22 1 24 0 8 -9z m814 -39 c0 -6 -4
-7 -10 -4 -5 3 -10 11 -10 16 0 6 5 7 10 4 6 -3 10 -11 10 -16z m45 -39 c3 -6
-1 -7 -9 -4 -18 7 -21 14 -7 14 6 0 13 -4 16 -10z m25 -21 c-13 -24 -24 -24
-41 -1 -13 16 -12 16 4 3 16 -13 20 -13 27 -1 5 8 6 18 3 24 -3 5 -1 6 5 2 9
-5 9 -13 2 -27z"/>
<path d="M663 1143 c9 -9 19 -14 23 -11 10 10 -6 28 -24 28 -15 0 -15 -1 1
-17z"/>
<path d="M426 831 c-4 -5 -2 -12 3 -15 5 -4 12 -2 15 3 4 5 2 12 -3 15 -5 4
-12 2 -15 -3z"/>
<path d="M855 790 c3 -5 8 -10 11 -10 2 0 4 5 4 10 0 6 -5 10 -11 10 -5 0 -7
-4 -4 -10z"/>
<path d="M6052 1409 c-50 -9 -64 -17 -57 -30 4 -5 -1 -9 -10 -9 -10 0 -14 5
-10 13 4 6 0 4 -8 -6 -8 -10 -19 -17 -23 -16 -21 4 -35 -2 -29 -11 3 -5 1 -10
-5 -10 -6 0 -8 -5 -4 -12 5 -8 1 -8 -12 2 -10 8 -16 11 -12 6 10 -12 -20 -66
-35 -63 -6 1 -11 -3 -10 -9 1 -6 -9 -10 -24 -8 -33 3 -53 -5 -53 -22 0 -8 -3
-13 -7 -11 -18 5 -104 -99 -97 -118 4 -10 0 -13 -15 -10 -14 2 -21 -1 -21 -11
0 -8 -6 -17 -14 -20 -9 -3 -12 -13 -9 -22 4 -9 3 -14 -2 -10 -4 4 -17 -5 -29
-19 -21 -28 -31 -57 -15 -47 5 3 9 0 9 -6 0 -6 5 -8 11 -5 6 5 4 12 -8 22 -17
14 -17 14 1 9 13 -5 17 -2 13 9 -4 8 -3 17 2 19 4 3 8 0 8 -7 0 -7 2 -16 3
-22 5 -22 -1 -46 -10 -40 -5 3 -10 0 -10 -7 0 -9 -3 -9 -8 -2 -4 6 -16 14 -27
18 -11 4 -16 4 -12 0 4 -4 -1 -13 -11 -21 -9 -8 -12 -12 -5 -9 7 4 11 -1 10
-13 -1 -14 -5 -17 -13 -10 -8 7 -15 6 -20 -2 -4 -8 -3 -9 4 -5 7 4 12 3 12 -2
0 -6 -6 -12 -14 -15 -8 -3 -20 -16 -26 -29 l-11 -23 17 23 c20 26 39 28 49 5
5 -15 4 -16 -6 -5 -17 16 -29 15 -29 -3 0 -8 -11 -22 -25 -31 -25 -16 -25 -34
-1 -34 8 0 16 8 19 18 2 11 14 21 25 24 18 5 21 2 19 -21 -2 -25 -5 -27 -46
-27 -28 -1 -47 -6 -49 -14 -3 -7 0 -10 6 -6 14 8 8 -42 -7 -57 -6 -6 -11 -21
-11 -33 0 -29 -10 -54 -21 -54 -6 0 -5 8 1 19 5 11 10 28 9 38 -1 10 -9 -7
-19 -37 -26 -76 -28 -251 -3 -271 9 -8 19 -13 22 -11 3 2 7 -5 8 -15 2 -15 2
-15 -5 1 -8 19 -9 19 -15 -3 -3 -13 -3 -20 0 -17 4 3 17 -12 30 -34 13 -22 31
-40 39 -40 8 0 13 4 10 9 -4 5 0 12 6 14 10 4 10 6 1 6 -7 1 -13 5 -13 9 0 10
46 9 56 -1 5 -4 2 -6 -6 -3 -10 4 -21 -5 -32 -23 -12 -21 -13 -31 -5 -34 7 -2
18 8 24 22 11 23 12 23 7 3 -7 -29 13 -54 37 -47 56 15 64 16 49 6 -11 -8 -3
-10 32 -9 26 0 46 4 43 8 -2 4 10 7 28 8 43 2 110 30 101 43 -3 6 0 10 7 8 32
-4 42 1 30 14 -8 11 -6 13 12 12 30 -3 49 14 42 36 -4 11 -2 19 5 19 6 0 8 -4
5 -10 -22 -36 47 15 130 96 33 31 49 49 36 38 -18 -14 -23 -15 -19 -4 2 8 17
21 31 28 15 7 27 20 27 28 0 7 5 13 12 11 7 -1 12 3 13 9 0 15 28 40 43 38 6
-1 18 -2 25 -3 9 -1 9 -3 -1 -10 -11 -7 -11 -9 2 -14 9 -4 16 -2 16 3 0 5 7 7
15 4 8 -4 12 -10 9 -15 -3 -5 -10 -6 -16 -3 -8 5 -9 -20 -4 -87 4 -51 4 -90 0
-86 -9 8 -13 53 -13 125 0 32 -4 52 -11 52 -13 0 -9 -102 5 -134 6 -13 5 -17
-2 -13 -13 8 -5 -31 9 -50 5 -7 7 -22 3 -33 -5 -17 -3 -21 10 -18 11 2 19 -4
20 -15 2 -9 0 -17 -4 -17 -4 0 -8 -7 -8 -15 0 -8 4 -15 9 -15 4 0 8 -6 8 -14
0 -17 39 -48 51 -40 4 2 10 0 14 -6 3 -5 30 -9 58 -8 l52 1 -45 7 -45 7 40 2
c22 1 49 7 60 12 19 9 18 9 -2 5 -13 -2 -25 -1 -28 3 -2 4 14 8 35 7 22 0 40
-4 40 -8 0 -5 -5 -8 -12 -8 -6 0 -8 -3 -5 -6 10 -10 38 17 30 29 -4 6 0 8 11
4 10 -4 15 -3 11 4 -4 5 -1 16 5 24 7 8 10 20 7 27 -2 7 -5 17 -5 22 -1 17
-26 25 -41 13 -12 -10 -14 -9 -8 5 4 12 2 15 -8 11 -8 -3 -12 -9 -9 -14 3 -5
0 -9 -5 -9 -14 0 -14 13 1 28 14 14 0 16 -21 3 -7 -5 -10 -14 -7 -20 4 -6 3
-11 -2 -11 -6 0 -10 20 -9 45 0 25 4 40 8 34 4 -7 5 -18 2 -26 -3 -7 0 -13 6
-13 15 0 14 23 -4 46 -8 10 -15 27 -15 37 0 10 -7 20 -15 23 -11 5 -13 10 -5
19 7 8 7 15 1 19 -5 3 -7 33 -4 66 3 39 1 60 -6 60 -14 0 -14 77 0 86 6 3 9
18 6 32 -3 14 -1 36 4 49 5 13 5 23 -1 23 -4 0 -11 -8 -13 -17 -4 -14 -5 -12
-6 5 0 12 3 22 8 22 7 0 14 29 36 145 13 74 14 94 5 100 -5 3 -10 18 -10 33
l1 27 15 -30 14 -30 -5 40 c-3 22 -5 48 -5 58 0 10 -3 16 -7 14 -5 -3 -9 7 -9
21 -1 15 1 21 3 14 3 -6 10 -9 15 -6 6 4 9 3 5 -2 -3 -5 -1 -25 3 -44 7 -28 8
-23 4 24 -6 76 -29 118 -48 88 -7 -12 -66 -14 -66 -1 0 6 8 8 20 4 12 -4 20
-2 20 5 0 6 -4 9 -9 5 -12 -7 -51 34 -51 52 0 8 -5 11 -12 7 -8 -5 -9 -2 -5 9
4 11 -1 20 -13 27 -16 8 -18 8 -14 -5 3 -8 11 -12 18 -8 6 4 5 -1 -3 -10 -15
-18 -26 -23 -16 -7 3 6 2 10 -4 10 -5 0 -8 11 -5 24 3 18 -1 26 -16 31 -33 10
-132 13 -178 4z m-58 -64 c-4 -8 -11 -12 -16 -9 -6 4 -5 10 3 15 19 12 19 11
13 -6z m-34 1 c0 -11 -19 -15 -25 -6 -3 5 1 10 9 10 9 0 16 -2 16 -4z m-57
-70 c-10 -13 -20 -20 -21 -15 -5 12 17 39 30 39 5 0 1 -11 -9 -24z m511 -32
c9 -24 2 -26 -12 -4 -7 11 -8 20 -3 20 5 0 12 -7 15 -16z m-344 2 c0 -3 -4 -8
-10 -11 -5 -3 -10 -1 -10 4 0 6 5 11 10 11 6 0 10 -2 10 -4z m-30 -27 c0 -14
-17 -10 -23 5 -4 10 -1 13 9 9 7 -3 14 -9 14 -14z m120 10 c0 -4 -18 -6 -40
-4 -22 2 -42 0 -44 -4 -4 -6 14 -10 58 -11 10 -1 16 -4 13 -7 -12 -11 38 -41
63 -37 18 3 21 2 10 -5 -8 -5 -18 -7 -22 -5 -4 3 -8 -1 -8 -9 0 -16 31 -18 42
-2 4 6 6 -5 3 -24 -2 -18 -7 -36 -11 -40 -4 -3 -4 2 -1 12 4 9 2 17 -4 17 -6
0 -7 6 -4 13 4 6 0 4 -8 -6 -12 -14 -13 -26 -6 -50 5 -18 9 -41 8 -52 0 -20 0
-20 -9 0 -6 14 -9 15 -9 5 -1 -9 6 -26 15 -39 15 -21 15 -24 -1 -39 -16 -16
-17 -16 -11 5 4 12 2 24 -3 27 -5 4 -9 -2 -9 -11 0 -10 -9 -39 -20 -66 -22
-48 -24 -64 -9 -59 5 1 6 -2 2 -7 -3 -6 -13 -7 -22 -4 -10 4 -14 2 -9 -5 3 -6
2 -14 -4 -17 -11 -7 -60 -80 -60 -90 0 -4 4 -4 8 -1 4 2 8 -19 8 -47 -1 -50
-2 -52 -28 -53 -15 -1 -25 3 -22 7 3 5 0 9 -7 9 -7 0 0 10 14 23 18 15 24 26
18 36 -7 11 -13 7 -27 -15 -10 -16 -24 -34 -32 -41 -9 -8 -12 -18 -7 -30 10
-21 14 -73 7 -73 -3 0 -11 8 -19 18 -13 15 -14 15 -9 0 3 -12 1 -15 -10 -11
-26 10 -64 -7 -74 -32 -5 -14 -15 -23 -22 -21 -7 1 -10 1 -6 -1 4 -2 4 -11 1
-19 -5 -13 -7 -13 -14 -2 -6 9 -9 7 -9 -10 0 -27 -55 -88 -65 -72 -3 6 -12 7
-18 3 -15 -10 -57 -11 -51 -2 4 8 -20 19 -42 19 -8 0 -11 -7 -8 -17 5 -14 4
-15 -4 -4 -7 9 -12 10 -16 2 -17 -26 -22 5 -23 129 -1 77 2 128 8 125 11 -7
12 8 2 19 -5 4 -8 18 -8 31 -1 16 4 21 15 18 10 -3 9 0 -4 11 -15 12 -16 16
-5 17 10 0 10 2 2 6 -7 2 -13 10 -13 16 1 7 9 2 20 -11 20 -25 43 -22 34 3 -4
8 -10 13 -14 10 -5 -3 -11 -1 -14 4 -7 11 13 9 32 -3 7 -4 11 -4 10 1 -1 4 3
17 9 28 6 11 10 38 8 60 -2 22 -1 34 2 27 3 -6 9 -10 14 -6 15 9 10 24 -8 25
-13 0 -14 2 -4 6 11 5 11 7 0 14 -10 6 -10 9 -2 9 7 0 17 -9 23 -20 8 -15 7
-26 -6 -45 -9 -14 -14 -29 -10 -32 4 -4 9 3 13 15 3 12 9 22 13 22 4 0 13 14
20 30 7 17 16 30 21 30 5 0 5 7 2 17 -4 9 -2 14 3 10 6 -3 15 3 22 13 10 16 8
22 -10 35 -13 8 -17 15 -11 15 7 0 15 -4 18 -10 3 -5 11 -10 16 -10 6 0 7 5 3
12 -5 7 -3 8 5 4 17 -11 41 24 35 49 -4 14 -3 16 4 7 7 -10 11 -10 21 2 6 8 8
16 4 18 -4 3 -3 4 3 2 18 -4 52 38 49 62 -1 11 4 21 11 21 9 0 10 -5 3 -19 -6
-11 -6 -18 0 -18 5 0 11 7 15 15 3 8 17 20 31 25 21 8 25 15 21 33 -3 12 -3
16 0 10 9 -19 48 -16 61 5 8 13 23 19 52 18 23 0 41 -4 41 -7z m-406 -48 c-8
-8 -43 -8 -38 0 2 4 13 7 24 6 10 -1 17 -3 14 -6z m-83 -64 c-10 -9 -11 -8 -5
6 3 10 9 15 12 12 3 -3 0 -11 -7 -18z m3 -46 c3 -5 -1 -11 -9 -15 -9 -3 -15 0
-15 9 0 16 16 20 24 6z m553 -43 c-3 -8 -6 -5 -6 6 -1 11 2 17 5 13 3 -3 4
-12 1 -19z m-593 -3 c-4 -8 -10 -12 -15 -9 -14 8 -10 24 6 24 9 0 12 -6 9 -15z
m46 -5 c0 -5 -5 -10 -11 -10 -5 0 -7 5 -4 10 3 6 8 10 11 10 2 0 4 -4 4 -10z
m560 -24 c0 -3 -4 -8 -10 -11 -5 -3 -10 -1 -10 4 0 6 5 11 10 11 6 0 10 -2 10
-4z m-450 -21 c0 -12 -19 -12 -23 0 -4 9 -1 12 9 8 7 -3 14 -7 14 -8z m-50
-60 c0 -8 -4 -15 -10 -15 -5 0 -7 7 -4 15 4 8 8 15 10 15 2 0 4 -7 4 -15z
m604 -82 c4 -9 3 -20 -2 -25 -6 -6 -11 1 -14 16 -6 29 6 35 16 9z m-184 -27
c0 -11 -19 -15 -25 -6 -3 5 1 10 9 10 9 0 16 -2 16 -4z m-19 -34 c-7 -2 -18 1
-23 6 -8 8 -4 9 13 5 13 -4 18 -8 10 -11z m219 -14 c0 -5 -4 -8 -10 -8 -5 0
-10 10 -10 23 0 18 2 19 10 7 5 -8 10 -18 10 -22z m-20 -33 c0 -5 -5 -3 -10 5
-5 8 -10 20 -10 25 0 6 5 3 10 -5 5 -8 10 -19 10 -25z m19 -24 c-6 -17 -9 -47
-7 -67 3 -27 1 -34 -11 -32 -12 2 -16 16 -17 48 l-2 45 8 -45 c7 -44 7 -44 8
-9 2 37 21 103 28 96 2 -2 -1 -18 -7 -36z m-928 -38 c-12 -20 -14 -14 -5 12 4
9 9 14 11 11 3 -2 0 -13 -6 -23z m579 -43 c0 -5 -5 -10 -11 -10 -5 0 -7 5 -4
10 3 6 8 10 11 10 2 0 4 -4 4 -10z m99 -27 c-9 -9 -7 -14 5 -19 9 -3 13 -11 9
-17 -4 -6 -12 -3 -21 9 -13 18 -14 18 -7 -3 3 -13 2 -23 -3 -23 -8 0 -9 10 -3
56 0 6 8 11 16 11 11 0 12 -4 4 -14z m110 -7 c0 -20 -1 -20 -9 -1 -5 11 -9 14
-9 8 -1 -7 -5 -13 -10 -13 -22 0 -17 25 5 26 19 2 24 -3 23 -20z m121 -43 c0
-12 4 -23 9 -25 4 -1 11 -14 15 -28 6 -23 6 -24 -6 -5 -12 19 -12 19 -20 -5
-6 -20 -7 -19 -3 8 3 18 1 31 -3 28 -4 -2 -7 13 -7 35 -1 22 2 33 7 26 4 -6 8
-22 8 -34z m17 10 c-3 -10 -5 -4 -5 12 0 17 2 24 5 18 2 -7 2 -21 0 -30z
m-442 -50 c0 -18 -6 -27 -14 -25 -8 2 -11 -3 -8 -11 3 -7 -1 -14 -8 -14 -14 0
-14 14 -2 35 5 7 14 9 20 5 8 -4 7 -1 -1 9 -10 13 -10 17 0 21 7 3 13 6 13 6
1 1 1 -11 0 -26z m155 16 c0 -5 5 -7 10 -4 6 3 10 1 10 -4 0 -6 -9 -11 -19
-11 -11 0 -23 -4 -26 -10 -3 -5 -12 -10 -18 -10 -7 1 -1 10 12 20 17 15 19 20
8 20 -9 0 -19 -5 -22 -10 -4 -6 -11 -7 -18 -3 -7 4 -4 9 9 14 28 11 54 10 54
-2z m-42 -76 c-4 -21 -25 -28 -25 -9 0 8 5 12 11 9 6 -3 5 0 -1 8 -7 7 -13 19
-13 27 0 10 3 10 16 -2 8 -9 14 -24 12 -33z m-88 2 c0 -12 -19 -12 -23 0 -4 9
-1 12 9 8 7 -3 14 -7 14 -8z m25 -40 c-18 -17 -31 -23 -37 -17 -7 7 -3 12 10
17 12 3 24 15 27 27 5 13 10 17 17 10 6 -6 0 -19 -17 -37z m275 35 c0 -5 -2
-10 -4 -10 -3 0 -8 5 -11 10 -3 6 -1 10 4 10 6 0 11 -4 11 -10z m-410 -49 c0
-5 -7 -12 -16 -15 -14 -5 -15 -4 -4 9 14 17 20 19 20 6z m81 -41 c6 0 8 4 4 9
-3 6 4 9 15 8 32 -2 4 -21 -33 -22 -29 0 -32 -3 -30 -30 1 -16 -1 -22 -4 -12
-2 9 -8 17 -12 17 -4 0 -7 9 -7 19 0 11 4 17 8 15 4 -3 16 -1 25 5 11 6 19 6
21 0 2 -5 8 -9 13 -9z m-477 -20 c-2 -52 -4 -56 -14 -38 -7 11 -7 25 0 42 12
34 15 33 14 -4z m806 6 c0 -3 -4 -8 -10 -11 -5 -3 -10 -1 -10 4 0 6 5 11 10
11 6 0 10 -2 10 -4z m-425 -65 c5 -12 3 -13 -6 -4 -6 6 -17 9 -24 7 -7 -3 -15
-2 -18 3 -3 4 5 9 18 9 14 1 26 -5 30 -15z m695 0 c-1 -17 -18 -33 -24 -22 -4
6 -2 11 5 11 8 0 8 4 -1 15 -11 13 -10 14 4 9 9 -3 16 -9 16 -13z m-725 -21
c3 -5 2 -10 -4 -10 -5 0 -13 5 -16 10 -3 6 -2 10 4 10 5 0 13 -4 16 -10z m519
-51 c-2 -4 2 -10 8 -13 7 -2 2 -3 -11 -2 -30 3 -41 26 -12 23 11 0 18 -4 15
-8z m69 -6 c-7 -2 -19 -2 -25 0 -7 3 -2 5 12 5 14 0 19 -2 13 -5z"/>
<path d="M5615 681 c-3 -5 -2 -12 3 -15 5 -3 9 1 9 9 0 17 -3 19 -12 6z"/>
<path d="M6035 640 c-3 -5 3 -10 15 -10 12 0 18 5 15 10 -3 6 -10 10 -15 10
-5 0 -12 -4 -15 -10z"/>
<path d="M5941 574 c-18 -21 -19 -26 -6 -21 9 4 19 7 21 7 3 0 2 6 -2 13 -4 6
2 3 14 -7 22 -19 22 -19 19 4 -5 34 -19 35 -46 4z"/>
<path d="M5787 428 c-15 -17 -25 -33 -22 -36 8 -8 58 44 54 56 -2 5 -16 -4
-32 -20z"/>
<path d="M5764 432 c-11 -9 -26 -18 -34 -20 -24 -5 -33 -19 -17 -25 15 -6 85
48 76 58 -3 3 -14 -3 -25 -13z"/>
<path d="M5616 404 c-4 -9 -4 -19 -1 -22 2 -3 7 3 11 12 4 9 4 19 1 22 -2 3
-7 -3 -11 -12z"/>
<path d="M728 1378 c5 -5 16 -8 23 -6 8 3 3 7 -10 11 -17 4 -21 3 -13 -5z"/>
<path d="M5061 1380 c-53 -11 -57 -15 -42 -34 10 -12 6 -14 -26 -11 -22 1 -47
-3 -58 -11 -10 -8 -13 -14 -6 -14 7 0 10 -4 6 -9 -3 -6 3 -15 12 -21 16 -10
15 -10 -4 -5 -14 4 -23 2 -23 -5 0 -7 -5 -6 -14 2 -8 7 -11 18 -8 23 3 6 -6
-1 -20 -15 -29 -30 -25 -49 5 -23 l21 18 -20 -26 c-11 -16 -22 -22 -25 -16 -5
6 -19 2 -38 -12 -26 -19 -34 -41 -15 -41 3 0 2 4 -1 10 -4 6 1 7 11 3 11 -4
15 -3 11 4 -5 7 2 10 18 8 27 -2 48 -15 26 -15 -7 0 -9 -6 -6 -12 4 -7 0 -5
-8 5 -12 15 -16 15 -20 3 -3 -8 -14 -13 -24 -12 -20 4 -66 -28 -56 -38 4 -3
16 2 27 11 14 12 17 13 9 3 -7 -10 -8 -21 -3 -30 10 -16 4 -30 -13 -30 -9 0
-9 2 0 8 7 5 9 13 4 21 -7 11 -10 9 -16 -8 -3 -11 -11 -21 -18 -21 -8 0 -8 3
1 12 15 15 15 28 0 28 -6 0 -9 -3 -5 -6 8 -8 -16 -33 -25 -27 -4 2 -5 -4 -1
-13 5 -13 3 -15 -7 -9 -10 6 -12 4 -7 -7 3 -9 0 -21 -6 -28 -9 -10 -8 -12 5
-7 12 4 15 2 11 -9 -4 -11 -8 -12 -19 -3 -11 9 -11 15 -3 25 7 9 8 14 1 14
-13 0 -24 -29 -15 -42 3 -6 1 -8 -4 -5 -13 8 -46 -40 -38 -53 3 -6 -1 -10 -9
-10 -10 0 -13 -6 -9 -16 5 -12 7 -13 14 -2 6 9 8 6 6 -10 -1 -14 -5 -18 -11
-12 -17 17 -28 11 -24 -14 6 -31 -6 -55 -15 -31 -4 9 -3 13 3 10 6 -4 7 1 3
11 -6 16 -17 6 -13 -11 0 -3 -6 -13 -15 -21 -8 -9 -13 -20 -10 -25 4 -5 1 -9
-5 -9 -7 0 -8 -6 -2 -17 12 -26 8 -106 -6 -111 -14 -4 -14 -2 -3 56 5 23 5 45
0 48 -5 3 -10 0 -10 -5 -3 -20 -5 -26 -17 -48 -7 -13 -17 -23 -23 -23 -6 0 -8
4 -4 9 3 5 0 13 -5 16 -6 4 -9 19 -6 33 3 15 8 44 10 64 2 21 8 43 12 49 4 7
3 9 -3 6 -5 -3 -10 0 -10 8 0 8 4 12 9 9 4 -3 9 5 10 18 2 26 5 51 8 58 12 34
15 65 7 67 -12 2 -36 35 -37 48 0 6 5 3 10 -5 8 -12 10 -10 10 8 0 13 -4 21
-9 18 -5 -3 -8 5 -8 18 0 16 4 23 13 19 7 -2 10 -11 7 -19 -3 -8 0 -14 6 -14
6 0 11 5 11 10 0 6 9 10 20 10 13 0 20 7 21 20 2 33 4 38 12 46 10 10 9 26 -1
20 -10 -6 -8 33 2 57 20 45 -102 110 -134 72 -8 -10 -20 -13 -34 -9 -18 6 -19
5 -8 -8 10 -13 9 -17 -5 -23 -28 -12 -44 -14 -37 -4 3 5 3 9 -1 9 -5 0 -23
-37 -33 -70 -2 -8 -5 -28 -7 -45 -1 -16 -3 -32 -4 -35 -7 -16 -13 -84 -14
-142 0 -37 -4 -65 -8 -62 -15 9 -9 -59 6 -86 20 -35 18 -50 -5 -50 -22 0 -21
3 -25 -337 -1 -122 13 -223 32 -223 16 0 16 -10 3 -44 -6 -18 -6 -26 1 -26 6
0 7 -5 4 -10 -3 -6 2 -13 12 -16 10 -3 27 -10 38 -15 18 -7 17 -8 -5 -5 -14 2
-19 1 -12 -1 7 -3 10 -8 8 -11 -6 -9 80 -7 117 3 15 4 27 11 27 16 0 4 9 16
19 26 11 10 22 34 24 54 2 19 6 39 9 44 8 15 22 116 19 144 -2 16 1 21 10 16
7 -5 10 -4 5 3 -10 17 -14 72 -5 78 5 3 9 10 9 15 0 6 -4 7 -10 4 -5 -3 -10
-2 -10 4 0 5 5 13 10 16 15 9 12 27 -2 19 -7 -4 -9 -3 -5 1 13 15 35 14 41 -1
3 -8 0 -13 -6 -11 -6 1 -13 -4 -16 -12 -3 -8 0 -11 7 -7 15 9 14 2 -3 -39 -8
-19 -11 -35 -7 -35 8 0 36 83 36 105 0 6 6 16 13 23 11 12 16 34 13 55 0 4 4
7 10 7 8 0 7 6 -2 17 -12 15 -12 16 3 10 10 -3 20 -2 23 2 2 5 -5 11 -16 14
-17 5 -19 9 -9 26 11 22 30 28 30 10 0 -5 -5 -7 -12 -3 -7 4 -8 3 -4 -4 4 -7
2 -12 -5 -12 -7 0 -10 -3 -6 -6 3 -3 16 1 29 10 12 9 19 16 15 16 -5 0 -1 7 7
16 9 8 16 22 16 30 0 8 6 14 13 14 7 0 8 3 2 8 -13 9 -18 72 -6 72 5 0 18 -8
27 -17 17 -17 18 -17 11 0 -4 12 -1 17 11 17 14 0 15 2 2 10 -9 6 -17 5 -21
-2 -4 -7 -9 -7 -13 0 -9 15 9 24 37 16 15 -3 28 -1 32 7 5 8 4 10 -3 5 -8 -5
-9 0 -3 16 4 13 18 24 30 26 11 2 21 7 21 12 0 9 -32 6 -50 -5 -5 -3 -7 0 -4
8 3 9 16 13 34 12 21 -2 36 6 59 31 21 22 28 35 20 40 -7 4 -9 3 -6 -3 7 -11
-17 -26 -26 -16 -14 13 7 31 33 28 28 -4 60 18 47 32 -4 3 -2 12 4 20 9 10 8
13 -1 13 -8 0 -10 3 -6 8 4 4 54 7 112 8 103 0 104 0 100 -23 -3 -15 0 -23 10
-23 8 0 13 -5 12 -10 -4 -15 60 -42 68 -29 4 7 10 6 18 0 9 -8 19 -6 35 8 13
12 18 22 11 26 -16 10 -12 25 5 19 8 -4 15 -1 15 6 0 6 -4 8 -10 5 -5 -3 -10
-1 -10 5 0 6 -12 -2 -26 -17 -20 -22 -23 -23 -15 -6 14 28 14 36 -1 27 -6 -4
-8 -3 -4 4 3 6 22 9 41 6 33 -4 35 -2 35 23 0 52 -11 74 -31 68 -11 -4 -19 -2
-19 5 0 6 4 9 9 5 5 -3 12 -1 16 4 3 6 -3 8 -15 6 -11 -2 -20 0 -20 6 0 5 8 9
18 10 16 0 16 1 -1 8 -10 4 -18 11 -18 16 1 6 -3 11 -9 11 -5 1 -13 3 -17 4
-5 1 -11 2 -15 1 -5 0 -8 3 -8 9 0 12 -39 33 -70 36 -14 2 -36 5 -50 8 -14 2
-45 0 -69 -4z m-551 -31 c0 -4 6 -6 14 -3 8 3 16 1 20 -4 9 -14 -28 -11 -46 5
-11 10 -18 11 -23 4 -3 -6 -1 -11 6 -11 7 0 10 -2 8 -5 -3 -2 -15 -1 -28 2
l-23 6 23 12 c23 13 49 10 49 -6z m535 11 c-3 -6 4 -14 17 -19 15 -7 17 -10 7
-10 -19 -1 -42 23 -32 32 10 10 15 8 8 -3z m155 -1 c0 -5 4 -8 8 -5 4 2 14 1
21 -3 10 -7 10 -9 -2 -14 -8 -3 -23 3 -33 14 -10 11 -12 19 -6 19 7 0 12 -5
12 -11z m-74 -11 c6 -10 -13 -9 -46 2 -23 8 -22 8 8 7 19 -1 36 -5 38 -9z m54
-8 c0 -5 -5 -10 -11 -10 -5 0 -7 5 -4 10 3 6 8 10 11 10 2 0 4 -4 4 -10z
m-220 -20 c0 -5 -5 -10 -11 -10 -5 0 -7 5 -4 10 3 6 8 10 11 10 2 0 4 -4 4
-10z m-584 -32 c4 -6 3 -8 -4 -4 -6 3 -13 2 -16 -3 -11 -17 12 -22 28 -6 13
14 15 13 13 -2 -1 -13 -10 -18 -33 -18 -34 0 -39 12 -14 32 19 15 17 15 26 1z
m924 -29 c0 -6 -4 -7 -10 -4 -5 3 -10 11 -10 16 0 6 5 7 10 4 6 -3 10 -11 10
-16z m20 -149 c0 -5 -5 -10 -11 -10 -5 0 -7 5 -4 10 3 6 8 10 11 10 2 0 4 -4
4 -10z m-1013 -42 c-3 -7 -5 -2 -5 12 0 14 2 19 5 13 2 -7 2 -19 0 -25z m9
-42 c0 -14 -5 -21 -9 -17 -4 4 -5 15 -1 24 9 24 12 21 10 -7z m198 9 c-4 -8
-10 -15 -15 -15 -4 0 -6 -8 -2 -17 5 -15 3 -16 -7 -6 -11 10 -10 16 5 33 22
24 26 25 19 5z m-20 -71 c3 -8 2 -12 -4 -9 -6 3 -10 10 -10 16 0 14 7 11 14
-7z m-176 -17 c-1 -13 -7 -24 -13 -24 -8 0 -9 7 -1 24 14 29 16 29 14 0z m319
-72 c0 -8 -5 -16 -11 -18 -6 -3 -11 6 -11 18 0 12 5 21 11 18 6 -2 11 -10 11
-18z m-337 -100 c0 -19 -4 -35 -10 -35 -5 0 -8 15 -6 33 6 39 5 37 11 37 3 0
5 -16 5 -35z m217 -69 c0 -8 -6 -12 -15 -9 -11 5 -11 7 0 14 7 5 13 9 14 9 0
0 1 -6 1 -14z m-222 -6 c3 -5 1 -10 -4 -10 -6 0 -11 5 -11 10 0 6 2 10 4 10 3
0 8 -4 11 -10z m5 -60 c0 -16 -4 -30 -10 -30 -5 0 -10 14 -10 30 0 17 5 30 10
30 6 0 10 -13 10 -30z m10 -50 c0 -5 -4 -10 -10 -10 -5 0 -10 5 -10 10 0 6 5
10 10 10 6 0 10 -4 10 -10z m-33 -47 c-3 -10 -5 -2 -5 17 0 19 2 27 5 18 2
-10 2 -26 0 -35z m43 7 c0 -5 -4 -10 -9 -10 -5 0 -12 -8 -14 -17 -3 -11 -5 -7
-6 10 -1 18 4 27 14 27 8 0 15 -4 15 -10z m-30 -139 c0 -45 -6 -37 -13 18 -4
29 -2 40 4 30 5 -7 9 -29 9 -48z m17 -8 c-3 -10 -5 -2 -5 17 0 19 2 27 5 18 2
-10 2 -26 0 -35z m2 -108 c0 -5 -4 -3 -9 5 -5 8 -9 22 -9 30 0 16 17 -16 18
-35z m221 -24 c0 -4 -9 -18 -20 -31 -11 -12 -17 -27 -14 -31 3 -5 0 -9 -6 -9
-6 0 -8 -5 -5 -10 3 -6 -6 -15 -20 -20 -38 -15 -45 -11 -10 5 23 11 26 14 10
15 -11 0 -27 5 -35 10 -11 7 -6 8 16 6 26 -4 34 0 43 20 14 31 14 37 1 29 -6
-4 -7 1 -3 11 4 11 8 13 11 6 2 -7 8 -12 14 -12 6 0 7 7 4 16 -3 8 -2 12 4 9
6 -3 10 -10 10 -14z m-213 -53 c-3 -8 -6 -5 -6 6 -1 11 2 17 5 13 3 -3 4 -12
1 -19z m57 -20 c-4 -6 1 -8 12 -4 11 3 25 2 32 -3 10 -6 10 -10 -3 -21 -13
-11 -19 -10 -35 5 -11 10 -31 18 -46 18 -32 0 -15 11 20 13 15 1 23 -2 20 -8z"/>
<path d="M3775 1349 c-27 -5 -57 -9 -65 -10 -67 -5 -225 -31 -229 -38 -3 -5
-15 -11 -26 -15 -11 -3 -4 -4 15 -2 28 3 36 0 36 -13 0 -15 -4 -15 -48 -2
l-48 15 28 12 c26 12 25 12 -23 13 -36 1 -46 -2 -35 -9 13 -8 12 -10 -2 -10
-10 0 -18 5 -18 11 0 5 -4 7 -10 4 -5 -3 -10 -15 -10 -25 0 -10 -4 -22 -10
-25 -6 -4 -7 6 -4 25 6 28 4 30 -22 30 -16 0 -40 3 -53 7 -18 5 -22 3 -16 -7
5 -8 3 -11 -6 -8 -8 3 -13 11 -11 17 1 6 -6 12 -15 12 -10 1 -27 3 -38 5 -64
11 -75 12 -69 2 4 -6 -1 -8 -12 -4 -24 7 -34 -1 -57 -41 -16 -29 -16 -33 -3
-33 9 0 16 -7 16 -15 0 -8 -5 -15 -11 -15 -5 0 -7 5 -4 10 3 6 2 10 -4 10 -5
0 -9 -9 -8 -20 1 -13 6 -19 16 -15 11 4 11 3 2 -9 -10 -11 -7 -17 11 -30 12
-9 28 -16 36 -16 7 0 10 -5 6 -12 -4 -7 -3 -8 4 -4 6 4 21 2 32 -4 25 -14 271
-23 250 -10 -9 6 -10 10 -3 10 6 0 15 -4 18 -10 3 -5 14 -10 23 -9 11 0 12 3
5 6 -25 10 -13 22 13 13 36 -14 67 -12 90 5 18 13 16 14 -21 14 -35 -1 -37 -2
-15 -9 20 -6 21 -8 5 -8 -21 0 -73 15 -65 18 3 1 36 4 73 6 54 2 66 0 58 -10
-7 -9 -4 -12 12 -11 12 0 28 4 35 8 6 5 17 5 24 1 7 -4 8 -3 4 4 -4 7 -1 12 9
12 9 0 13 -4 10 -10 -3 -5 -1 -10 4 -10 6 0 11 5 11 10 0 6 5 10 11 10 5 0 7
-6 3 -12 -5 -8 0 -7 11 2 10 8 16 10 12 4 -4 -7 0 -15 9 -18 8 -3 12 -2 9 3
-8 14 15 25 27 13 7 -7 3 -14 -11 -21 -17 -10 -19 -14 -9 -25 8 -8 15 -10 19
-4 3 5 9 3 12 -6 9 -22 -21 -21 -45 1 -14 13 -17 13 -13 2 3 -9 -6 -20 -25
-31 -27 -15 -29 -20 -18 -37 9 -15 14 -17 20 -8 6 9 8 9 8 0 0 -16 -17 -26
-25 -13 -3 5 -11 10 -16 10 -6 0 -7 -6 -3 -12 5 -8 1 -8 -12 2 -10 8 -16 11
-13 7 4 -5 -12 -26 -34 -48 -23 -21 -37 -39 -32 -40 6 0 0 -4 -13 -9 -18 -8
-21 -15 -17 -37 3 -18 3 -22 -3 -10 -7 16 -9 16 -27 2 -11 -9 -15 -14 -10 -12
6 3 19 -1 30 -10 19 -14 19 -14 -8 -7 -20 4 -33 1 -47 -11 -11 -10 -17 -21
-15 -26 3 -4 -3 -10 -13 -13 -26 -9 -67 -54 -68 -77 -3 -36 -4 -38 -23 -36
-11 0 -17 6 -14 12 4 5 -5 0 -18 -12 -17 -16 -25 -32 -23 -51 2 -25 -2 -29
-25 -28 -25 1 -71 -28 -71 -46 0 -5 4 -7 8 -4 4 2 8 -3 8 -13 0 -10 -6 -18
-12 -18 -7 0 -10 7 -7 15 5 11 2 12 -13 4 -28 -15 -56 -51 -48 -63 7 -11 -13
-39 -29 -39 -6 0 -2 6 9 14 10 8 16 17 13 21 -9 9 -100 -87 -95 -100 2 -7 -2
-12 -10 -12 -7 0 -10 5 -7 11 3 6 -10 -7 -30 -29 -35 -39 -50 -68 -24 -46 10
8 14 7 14 -3 0 -8 -8 -13 -18 -11 -23 5 -72 -33 -65 -51 3 -7 0 -11 -7 -8 -9
3 -12 -5 -11 -23 3 -39 3 -39 12 -25 6 8 9 1 9 -20 0 -18 -2 -27 -5 -20 -2 6
-8 10 -13 7 -5 -4 -6 1 -3 9 3 9 1 16 -5 16 -10 0 -15 -14 -12 -34 1 -5 -6 -6
-15 -2 -14 5 -15 4 -4 -9 9 -11 16 -12 25 -5 10 8 15 8 21 -1 5 -8 3 -9 -6 -4
-8 5 -11 4 -7 -2 4 -6 19 -9 34 -7 24 4 25 3 8 -5 -22 -10 -19 -12 38 -14 20
-1 37 1 37 6 0 4 -10 8 -22 8 -15 1 -10 4 12 8 40 8 51 4 30 -9 -8 -5 -11 -12
-7 -16 3 -4 13 -2 20 4 8 7 18 8 22 4 5 -4 5 -1 1 5 -6 12 4 17 26 15 3 -1 11
4 17 12 8 9 7 13 -4 13 -8 0 -11 -5 -8 -11 3 -6 2 -7 -3 -3 -5 5 -9 21 -10 37
-1 22 3 27 14 22 11 -4 12 -7 4 -10 -20 -6 -14 -18 10 -19 18 -2 20 0 8 7 -8
5 -11 10 -6 10 5 0 3 6 -3 14 -10 11 -7 14 14 12 13 0 27 -6 29 -13 3 -7 -1
-10 -10 -6 -10 4 -12 0 -8 -10 5 -14 9 -14 39 0 19 9 31 21 28 26 -3 6 -2 7 4
4 5 -3 36 3 69 13 39 13 48 19 27 17 -18 -2 -30 0 -27 5 3 5 24 8 47 7 55 -1
158 11 177 22 9 5 -3 7 -31 5 -26 -2 -53 -7 -60 -11 -11 -6 -12 -5 -2 5 15 17
95 22 129 10 13 -5 24 -6 24 -1 0 5 83 8 185 8 150 0 185 -3 181 -14 -3 -7 0
-14 7 -15 7 0 17 -2 22 -2 6 -1 23 -10 39 -21 28 -19 69 -28 61 -14 -3 4 2 9
9 12 10 4 13 15 10 31 -3 20 -1 24 11 20 8 -4 15 -1 15 6 0 6 -4 8 -10 5 -16
-10 -12 6 6 26 29 32 -3 124 -36 104 -5 -3 -10 -11 -10 -16 0 -6 4 -7 10 -4 6
3 7 -1 4 -9 -3 -9 -1 -16 6 -16 6 0 9 4 5 9 -3 5 -1 12 5 16 17 10 11 -21 -8
-46 -13 -15 -21 -19 -26 -11 -4 7 -1 12 9 12 9 0 13 5 10 10 -4 6 -10 8 -15 5
-4 -3 -7 15 -5 40 1 25 -1 45 -4 46 -3 0 -19 2 -36 4 -21 3 -26 2 -15 -5 13
-8 13 -10 -2 -10 -9 0 -18 4 -20 10 -4 11 -111 33 -136 27 -9 -2 12 -7 47 -11
38 -5 58 -11 51 -16 -7 -4 -25 -4 -39 0 -31 10 -141 21 -141 14 0 -3 9 -8 20
-12 14 -5 -1 -8 -42 -9 -34 -1 -65 2 -68 7 -5 7 -65 -2 -110 -18 -8 -3 -20 -4
-26 -3 -6 0 -30 -6 -54 -14 -23 -8 -46 -12 -52 -9 -5 3 -14 1 -21 -4 -7 -5
-26 -10 -43 -10 -23 0 -30 4 -29 16 3 27 16 52 25 47 4 -2 15 4 24 14 20 22 7
36 -23 26 -22 -7 -37 10 -20 21 7 4 9 3 5 -4 -8 -13 46 -11 56 2 3 5 14 11 23
12 22 3 46 24 39 35 -3 5 2 9 10 9 9 0 16 4 16 9 0 5 -10 7 -22 4 -14 -4 -20
-2 -15 3 5 5 12 9 15 9 16 1 32 17 26 27 -4 7 -2 8 5 4 6 -4 8 -12 5 -18 -4
-6 1 -6 14 1 11 6 24 20 27 31 4 11 10 18 14 16 4 -3 13 5 21 17 12 21 12 21
-5 7 -17 -14 -17 -14 -5 7 8 11 20 19 27 16 8 -3 13 0 11 8 -2 8 3 13 10 11 8
-1 11 2 7 9 -5 7 -11 7 -17 1 -11 -11 -38 -5 -38 8 0 4 8 7 18 7 51 0 72 4 70
14 -2 6 10 19 26 28 16 9 31 23 34 31 3 13 2 13 -7 0 -9 -13 -11 -12 -11 4 0
12 5 16 16 12 20 -8 74 42 67 61 -8 21 -22 15 -18 -8 3 -12 2 -19 -2 -16 -3 4
-11 0 -17 -9 -10 -13 -12 -13 -12 5 0 11 3 19 6 19 19 -2 21 4 7 15 -16 11
-13 12 17 13 22 0 33 -4 29 -10 -4 -6 3 -2 15 8 22 19 30 32 14 22 -5 -3 -9 1
-9 9 0 8 4 12 8 9 13 -7 50 16 44 27 -4 5 -12 9 -18 9 -8 0 -8 -3 1 -9 11 -7
11 -9 -2 -14 -9 -4 -15 -3 -15 1 3 20 -2 25 -12 12 -9 -13 -10 -13 -6 0 2 9
16 15 33 16 56 2 56 2 52 40 -2 29 1 37 15 40 9 1 17 -4 17 -12 0 -8 -4 -14
-10 -14 -5 0 -10 5 -10 12 0 6 -3 9 -6 5 -3 -3 -2 -13 3 -22 8 -13 14 -10 39
22 36 46 50 68 38 60 -5 -3 -9 5 -9 18 0 14 5 21 12 18 7 -3 10 -10 6 -17 -3
-6 6 0 20 13 20 18 24 27 15 33 -10 6 -10 8 0 8 9 0 11 8 8 23 -3 12 -3 16 0
10 8 -18 27 -16 21 1 -3 8 -1 17 6 19 9 3 9 7 0 19 -7 8 -10 17 -7 20 3 3 -9
16 -25 28 -17 12 -31 17 -31 11 0 -6 -5 -11 -11 -11 -5 0 -8 4 -5 9 7 11 -22
23 -35 15 -15 -9 -69 -23 -69 -18 0 3 10 9 23 14 22 9 22 9 -3 8 -14 0 -47 -5
-75 -9z m142 -15 c-3 -3 -12 -4 -19 -1 -8 3 -5 6 6 6 11 1 17 -2 13 -5z m-603
-49 c-4 -8 -8 -15 -10 -15 -2 0 -4 7 -4 15 0 8 4 15 10 15 5 0 7 -7 4 -15z
m-39 -1 c13 -5 14 -8 3 -15 -20 -13 -38 -11 -38 6 0 16 9 19 35 9z m139 -18
c9 3 16 1 16 -5 0 -15 -41 -13 -62 3 -27 20 -21 30 6 12 14 -9 32 -13 40 -10z
m-194 5 c0 -6 -4 -13 -10 -16 -5 -3 -10 1 -10 9 0 9 5 16 10 16 6 0 10 -4 10
-9z m741 -31 c-8 -5 -9 -14 -2 -33 7 -17 7 -27 1 -27 -6 0 -10 8 -10 17 0 9
-7 24 -15 33 -15 16 -14 18 11 18 14 0 21 -4 15 -8z m-21 -40 c0 -5 -2 -10 -4
-10 -3 0 -8 5 -11 10 -3 6 -1 10 4 10 6 0 11 -4 11 -10z m-773 -36 c-3 -3 -12
-4 -19 -1 -8 3 -5 6 6 6 11 1 17 -2 13 -5z m86 -1 c-7 -2 -21 -2 -30 0 -10 3
-4 5 12 5 17 0 24 -2 18 -5z m142 -3 c-3 -5 -23 -9 -43 -9 l-37 2 35 7 c52 11
52 11 45 0z m-205 -10 c-8 -5 -26 -9 -40 -9 -23 1 -23 2 5 9 43 11 52 11 35 0z
m83 -7 c-7 -2 -21 -2 -30 0 -10 3 -4 5 12 5 17 0 24 -2 18 -5z m401 -81 c3 -5
-1 -9 -9 -9 -8 0 -12 4 -9 9 3 4 7 8 9 8 2 0 6 -4 9 -8z m-82 -100 c-7 -2 -12
-8 -12 -13 0 -6 5 -7 12 -3 7 4 8 3 4 -4 -4 -6 -13 -9 -21 -6 -11 5 -12 10 -3
24 7 10 17 16 22 13 6 -4 5 -8 -2 -11z m40 -127 c2 3 5 -2 5 -10 0 -8 -3 -13
-5 -10 -3 3 -10 1 -17 -5 -8 -6 -11 -2 -11 15 0 17 3 21 11 15 7 -6 14 -8 17
-5z m-192 -53 c0 -4 -9 -8 -20 -9 -11 -1 -20 2 -20 5 0 4 9 8 20 9 11 1 20 -2
20 -5z m43 -138 c-3 -8 -7 -14 -10 -14 -3 0 -2 7 1 16 5 13 2 15 -14 11 -16
-4 -19 -2 -11 7 6 7 7 17 3 22 -4 5 3 1 15 -10 12 -10 19 -24 16 -32z m-95
-43 c0 -3 1 -8 2 -11 7 -19 7 -39 -1 -34 -5 3 -9 0 -9 -6 0 -6 -4 -8 -10 -5
-18 11 -11 35 8 28 16 -6 16 -5 -1 14 -14 16 -14 20 -3 20 8 0 15 -3 14 -6z
m-68 -113 c-8 -7 -21 -19 -27 -27 -8 -9 -13 -10 -13 -4 0 15 28 43 43 43 6 0
5 -5 -3 -12z m196 -81 c4 -4 -19 -8 -52 -8 -32 -1 -51 -3 -41 -6 25 -7 21 -18
-8 -19 -14 -1 -22 2 -19 7 3 5 -1 9 -8 10 -7 0 -1 6 14 13 29 13 102 15 114 3z
m-158 -20 c6 3 12 1 12 -4 0 -12 -38 -14 -46 -2 -4 6 -11 6 -19 -1 -10 -8 -15
-8 -21 1 -4 7 -3 9 4 5 6 -3 13 -2 17 4 4 6 13 7 23 1 9 -4 23 -6 30 -4z m692
-52 c-7 -8 -17 -15 -22 -15 -11 0 14 29 26 30 5 0 3 -7 -4 -15z m-43 -27 c-3
-8 -6 -5 -6 6 -1 11 2 17 5 13 3 -3 4 -12 1 -19z m14 -22 c-7 -8 -8 -16 -4
-18 4 -1 -2 -13 -14 -25 -19 -18 -22 -19 -20 -5 1 9 6 22 10 29 4 6 2 13 -5
16 -7 2 -5 3 5 1 10 -1 21 4 24 12 3 8 8 13 11 10 3 -3 0 -12 -7 -20z m-738
-8 c-2 -5 3 -8 11 -8 9 0 16 -4 16 -9 0 -5 -13 -4 -30 2 -26 10 -33 8 -56 -13
l-28 -25 21 30 c14 20 29 30 46 30 14 0 23 -3 20 -7z m58 -11 c-10 -9 -11 -8
-5 6 3 10 9 15 12 12 3 -3 0 -11 -7 -18z m599 13 c0 10 3 10 15 0 8 -7 14 -20
14 -29 -1 -13 -2 -13 -6 2 -3 13 -12 16 -36 13 -18 -3 -26 -3 -19 0 6 3 9 11
5 17 -4 7 1 6 10 -2 13 -10 17 -10 17 -1z m-795 -80 c3 -6 -1 -7 -9 -4 -18 7
-21 14 -7 14 6 0 13 -4 16 -10z"/>
<path d="M4985 1350 c3 -5 8 -10 11 -10 2 0 4 5 4 10 0 6 -5 10 -11 10 -5 0
-7 -4 -4 -10z"/>
<path d="M4370 1329 c0 -5 5 -7 10 -4 6 3 10 8 10 11 0 2 -4 4 -10 4 -5 0 -10
-5 -10 -11z"/>
<path d="M5831 1293 l-35 -36 33 19 c18 10 36 25 38 32 10 25 -3 20 -36 -15z"/>
<path d="M4996 1148 c3 -4 -4 -11 -13 -17 -10 -6 -15 -11 -11 -11 4 0 22 9 39
19 30 18 30 19 6 18 -14 -1 -23 -5 -21 -9z"/>
<path d="M5140 1148 c0 -4 4 -8 9 -8 6 0 12 4 15 8 3 5 -1 9 -9 9 -8 0 -15 -4
-15 -9z"/>
<path d="M4514 1108 c-9 -18 -13 -30 -9 -26 5 4 13 3 20 -2 8 -6 12 -6 13 3 0
6 3 22 6 35 7 33 -11 27 -30 -10z"/>
<path d="M1162 1055 c0 -16 2 -22 5 -12 2 9 2 23 0 30 -3 6 -5 -1 -5 -18z"/>
<path d="M4820 959 c0 -5 5 -7 10 -4 6 3 10 8 10 11 0 2 -4 4 -10 4 -5 0 -10
-5 -10 -11z"/>
<path d="M4730 881 c0 -6 5 -13 10 -16 6 -4 7 -11 4 -17 -4 -7 -2 -8 4 -4 9 5
9 13 2 27 -11 20 -20 25 -20 10z"/>
<path d="M4280 871 c0 -5 5 -13 10 -16 6 -3 10 -2 10 4 0 5 -4 13 -10 16 -5 3
-10 2 -10 -4z"/>
<path d="M5485 800 c-3 -5 -1 -10 4 -10 6 0 11 5 11 10 0 6 -2 10 -4 10 -3 0
-8 -4 -11 -10z"/>
<path d="M5415 730 c3 -5 8 -10 11 -10 2 0 4 5 4 10 0 6 -5 10 -11 10 -5 0 -7
-4 -4 -10z"/>
<path d="M3330 714 c0 -8 5 -12 10 -9 6 4 8 11 5 16 -9 14 -15 11 -15 -7z"/>
<path d="M5400 699 c0 -5 5 -7 10 -4 6 3 10 8 10 11 0 2 -4 4 -10 4 -5 0 -10
-5 -10 -11z"/>
<path d="M3250 635 c-7 -9 -8 -15 -2 -15 5 0 12 7 16 15 3 8 4 15 2 15 -2 0
-9 -7 -16 -15z"/>
<path d="M101 474 c0 -11 3 -14 6 -6 3 7 2 16 -1 19 -3 4 -6 -2 -5 -13z"/>
<path d="M3665 470 c-19 -8 -19 -9 2 -9 12 -1 25 4 28 9 7 12 -2 12 -30 0z"/>
<path d="M2585 390 c-3 -5 -1 -10 4 -10 6 0 11 5 11 10 0 6 -2 10 -4 10 -3 0
-8 -4 -11 -10z"/>
<path d="M549 276 c0 -1 -2 -9 -4 -18 -3 -14 0 -15 16 -5 23 14 24 24 4 24 -8
0 -15 -1 -16 -1z"/>
<path d="M2695 250 c-16 -18 -19 -18 -30 -3 -10 14 -12 13 -10 -8 1 -13 4 -24
6 -24 11 0 63 44 58 49 -3 3 -14 -3 -24 -14z"/>
<path d="M4280 260 c0 -5 5 -10 10 -10 6 0 10 5 10 10 0 6 -4 10 -10 10 -5 0
-10 -4 -10 -10z"/>
<path d="M2823 208 c-11 -19 -14 -48 -4 -48 14 0 21 28 8 34 -7 2 -4 5 6 5 9
1 17 6 17 11 0 14 -17 12 -27 -2z"/>
<path d="M1170 185 c-14 -16 -10 -18 14 -9 9 3 16 10 16 15 0 14 -16 11 -30
-6z"/>
<path d="M1803 190 c-13 -5 -23 -12 -23 -15 0 -4 10 -3 23 1 12 4 28 7 35 7 6
0 12 4 12 9 0 10 -18 9 -47 -2z"/>
</g>
</svg>
